<svg width="18" height="18" viewBox="0 0 18 18" fill="none" xmlns="http://www.w3.org/2000/svg">
<path d="M2.83207 16.1512L2.4647 16.6568L2.83207 16.1512ZM1.84881 15.1679L1.34318 15.5353L1.84881 15.1679ZM16.1512 15.1679L15.6456 14.8006L16.1512 15.1679ZM15.1679 16.1512L14.8006 15.6456L15.1679 16.1512ZM15.1679 1.84881L14.8006 2.35445L15.1679 1.84881ZM16.1512 2.83207L15.6456 3.19943L16.1512 2.83207ZM2.83207 1.84881L3.19943 2.35445L2.83207 1.84881ZM1.84881 2.83207L2.35445 3.19943L1.84881 2.83207ZM2.78084 15.9622L2.15637 15.9365L2.15584 15.9494V15.9622H2.78084ZM15.2138 15.8644L15.8384 15.8431L15.8381 15.8324L15.8373 15.8217L15.2138 15.8644ZM11.9306 6.33333C11.9306 7.95183 10.6185 9.26389 9 9.26389V10.5139C11.3089 10.5139 13.1806 8.64219 13.1806 6.33333H11.9306ZM9 9.26389C7.3815 9.26389 6.06944 7.95183 6.06944 6.33333H4.81944C4.81944 8.64219 6.69114 10.5139 9 10.5139V9.26389ZM6.06944 6.33333C6.06944 4.71483 7.3815 3.40278 9 3.40278V2.15278C6.69114 2.15278 4.81944 4.02448 4.81944 6.33333H6.06944ZM9 3.40278C10.6185 3.40278 11.9306 4.71483 11.9306 6.33333H13.1806C13.1806 4.02448 11.3089 2.15278 9 2.15278V3.40278ZM9 16.375C7.31953 16.375 6.10938 16.3741 5.17155 16.2725C4.24542 16.1722 3.65928 15.9796 3.19943 15.6456L2.4647 16.6568C3.17315 17.1715 4.00442 17.4034 5.03691 17.5153C6.0577 17.6259 7.34737 17.625 9 17.625V16.375ZM0.375 9C0.375 10.6526 0.374142 11.9423 0.484738 12.9631C0.596601 13.9956 0.828462 14.8269 1.34318 15.5353L2.35445 14.8006C2.02035 14.3407 1.82781 13.7546 1.72747 12.8284C1.62586 11.8906 1.625 10.6805 1.625 9H0.375ZM16.375 9C16.375 10.6805 16.3741 11.8906 16.2725 12.8284C16.1722 13.7546 15.9796 14.3407 15.6456 14.8006L16.6568 15.5353C17.1715 14.8269 17.4034 13.9956 17.5153 12.9631C17.6259 11.9423 17.625 10.6526 17.625 9H16.375ZM9 17.625C10.6526 17.625 11.9423 17.6259 12.9631 17.5153C13.9956 17.4034 14.8269 17.1715 15.5353 16.6568L14.8006 15.6456C14.3407 15.9796 13.7546 16.1722 12.8284 16.2725C11.8906 16.3741 10.6805 16.375 9 16.375V17.625ZM9 1.625C10.6805 1.625 11.8906 1.62586 12.8284 1.72747C13.7546 1.82781 14.3407 2.02035 14.8006 2.35445L15.5353 1.34318C14.8269 0.828462 13.9956 0.596601 12.9631 0.484738C11.9423 0.374142 10.6526 0.375 9 0.375V1.625ZM17.625 9C17.625 7.34737 17.6259 6.0577 17.5153 5.03691C17.4034 4.00442 17.1715 3.17315 16.6568 2.4647L15.6456 3.19943C15.9796 3.65928 16.1722 4.24542 16.2725 5.17155C16.3741 6.10938 16.375 7.31953 16.375 9H17.625ZM14.8006 2.35445C15.1248 2.59003 15.41 2.87518 15.6456 3.19943L16.6568 2.4647C16.3441 2.03433 15.9657 1.65586 15.5353 1.34318L14.8006 2.35445ZM9 0.375C7.34737 0.375 6.0577 0.374142 5.03691 0.484738C4.00442 0.596601 3.17315 0.828462 2.4647 1.34318L3.19943 2.35445C3.65928 2.02035 4.24542 1.82781 5.17155 1.72747C6.10938 1.62586 7.31953 1.625 9 1.625V0.375ZM1.625 9C1.625 7.31953 1.62586 6.10938 1.72747 5.17155C1.82781 4.24542 2.02035 3.65928 2.35445 3.19943L1.34318 2.4647C0.828462 3.17315 0.596601 4.00442 0.484738 5.03691C0.374142 6.0577 0.375 7.34737 0.375 9H1.625ZM2.4647 1.34318C2.03433 1.65586 1.65586 2.03433 1.34318 2.4647L2.35445 3.19943C2.59003 2.87518 2.87518 2.59003 3.19943 2.35445L2.4647 1.34318ZM6.33333 13.1806H11.6667V11.9306H6.33333V13.1806ZM6.33333 11.9306C4.08297 11.9306 2.24815 13.7084 2.15637 15.9365L3.40531 15.9879C3.46962 14.4268 4.75609 13.1806 6.33333 13.1806V11.9306ZM3.19943 15.6456C3.18468 15.6348 3.17001 15.624 3.15541 15.6131L2.40627 16.6137C2.42563 16.6282 2.44511 16.6426 2.4647 16.6568L3.19943 15.6456ZM3.15541 15.6131C2.84933 15.3839 2.57931 15.1101 2.35445 14.8006L1.34318 15.5353C1.64163 15.9461 2.00002 16.3096 2.40627 16.6137L3.15541 15.6131ZM2.15584 15.9622V16.1134H3.40584V15.9622H2.15584ZM11.6667 13.1806C13.2166 13.1806 14.4859 14.3841 14.5903 15.9072L15.8373 15.8217C15.6884 13.6476 13.8783 11.9306 11.6667 11.9306V13.1806ZM15.6456 14.8006C15.4213 15.1092 15.1522 15.3824 14.8472 15.6111L15.5972 16.6111C16.002 16.3075 16.3592 15.9449 16.6568 15.5353L15.6456 14.8006ZM14.8472 15.6111C14.8318 15.6227 14.8162 15.6342 14.8006 15.6456L15.5353 16.6568C15.5561 16.6417 15.5767 16.6265 15.5972 16.6111L14.8472 15.6111ZM14.5892 15.8858L14.5976 16.1324L15.8469 16.0898L15.8384 15.8431L14.5892 15.8858Z" fill="#007DEF"/>
</svg>
