<svg width="22" height="20" viewBox="0 0 22 20" fill="none" xmlns="http://www.w3.org/2000/svg">
<path fill-rule="evenodd" clip-rule="evenodd" d="M1.41305 0.547715C1.31698 0.160399 0.92761 -0.0750799 0.543368 0.0217586C0.159126 0.118597 -0.074484 0.511082 0.0215859 0.898398L1.02736 4.95328L1.96329 8.88961C2.36125 10.5634 2.6745 11.8809 3.04622 12.9044C3.42752 13.9543 3.8951 14.7693 4.64531 15.3943C4.71005 15.4483 4.77601 15.5007 4.84314 15.5516C5.62097 16.1413 6.51626 16.4097 7.61799 16.5388C8.69201 16.6646 10.036 16.6646 11.7435 16.6646H12.3111C13.7884 16.6646 14.9514 16.6646 15.8883 16.5691C16.8479 16.4713 17.6375 16.2683 18.3481 15.8198C18.6851 15.6071 18.9983 15.3582 19.282 15.0773C19.9502 14.4161 20.3467 13.5859 20.6879 12.5092C20.939 11.7174 21.1728 10.7485 21.4541 9.5663L21.524 9.27239C21.7317 8.39922 21.9028 7.67955 21.9689 7.09653C22.0375 6.49144 22.0095 5.91528 21.7099 5.38923C21.5817 5.16423 21.4215 4.95942 21.2343 4.78135C20.7966 4.36501 20.2473 4.20328 19.6476 4.12951C19.0697 4.05843 18.3355 4.05845 17.4447 4.05847L2.28386 4.05847L1.41305 0.547715ZM3.34747 8.50799L2.63328 5.50424H17.3982C18.3472 5.50424 18.9932 5.50552 19.4738 5.56464C19.9427 5.6223 20.1349 5.72344 20.2499 5.83283C20.335 5.91377 20.4078 6.00686 20.466 6.10913C20.5448 6.24735 20.5975 6.45934 20.5439 6.93234C20.4952 7.3621 20.3724 7.90853 20.1911 8.6748L13.148 8.67479C12.7519 8.67479 12.4308 8.99844 12.4308 9.39768C12.4308 9.79692 12.7519 10.1206 13.148 10.1206L19.8455 10.1206C19.7126 10.6666 19.5915 11.1439 19.4719 11.5663H16.0166C15.6205 11.5663 15.2994 11.89 15.2994 12.2892C15.2994 12.6885 15.6205 13.0121 16.0166 13.0121H18.9682C18.7645 13.4581 18.5444 13.7813 18.2772 14.0456C18.0675 14.2532 17.836 14.4372 17.5869 14.5944C17.1336 14.8805 16.5859 15.0448 15.7439 15.1307C14.8876 15.2179 13.7969 15.2188 12.2718 15.2188H11.7892C10.0261 15.2188 8.76527 15.2177 7.78357 15.1027C6.82002 14.9898 6.20398 14.7743 5.70528 14.3962C5.65567 14.3586 5.60691 14.3198 5.55906 14.2799C5.07807 13.8792 4.72657 13.3256 4.3931 12.4074C4.05334 11.4719 3.75839 10.2362 3.34747 8.50799Z" fill="#007DEF"/>
<path d="M9.77612 18.9854C9.77612 19.5458 9.32548 20 8.76959 20C8.2137 20 7.76307 19.5458 7.76307 18.9854C7.76307 18.4251 8.2137 17.9708 8.76959 17.9708C9.32548 17.9708 9.77612 18.4251 9.77612 18.9854Z" fill="#007DEF"/>
<path d="M15.8153 18.9854C15.8153 19.5458 15.3646 20 14.8087 20C14.2528 20 13.8022 19.5458 13.8022 18.9854C13.8022 18.4251 14.2528 17.9708 14.8087 17.9708C15.3646 17.9708 15.8153 18.4251 15.8153 18.9854Z" fill="#007DEF"/>
</svg>
