<svg width="13" height="13" viewBox="0 0 13 13" fill="none" xmlns="http://www.w3.org/2000/svg">
<path d="M10.2584 9.55124C10.0631 9.35598 9.74652 9.35598 9.55126 9.55124C9.356 9.7465 9.356 10.0631 9.55126 10.2583L10.2584 9.55124ZM11.6464 12.3536C11.8417 12.5488 12.1583 12.5488 12.3536 12.3536C12.5488 12.1583 12.5488 11.8417 12.3536 11.6464L11.6464 12.3536ZM4.85897 3.09751C5.13172 3.05431 5.3178 2.79819 5.2746 2.52545C5.2314 2.25271 4.97528 2.06663 4.70254 2.10982L4.85897 3.09751ZM2.10981 4.70254C2.06662 4.97528 2.2527 5.2314 2.52544 5.2746C2.79818 5.3178 3.0543 5.13172 3.0975 4.85898L2.10981 4.70254ZM9.55126 10.2583L11.6464 12.3536L12.3536 11.6464L10.2584 9.55124L9.55126 10.2583ZM5.71429 9.92855C3.3868 9.92855 1.5 8.04176 1.5 5.71428H0.5C0.5 8.59404 2.83452 10.9286 5.71429 10.9286V9.92855ZM9.92859 5.71428C9.92859 8.04176 8.04179 9.92855 5.71429 9.92855V10.9286C8.59407 10.9286 10.9286 8.59404 10.9286 5.71428H9.92859ZM5.71429 1.5C8.04179 1.5 9.92859 3.3868 9.92859 5.71428H10.9286C10.9286 2.83451 8.59407 0.5 5.71429 0.5V1.5ZM5.71429 0.5C2.83452 0.5 0.5 2.83451 0.5 5.71428H1.5C1.5 3.3868 3.3868 1.5 5.71429 1.5V0.5ZM4.70254 2.10982C3.36792 2.32121 2.3212 3.36792 2.10981 4.70254L3.0975 4.85898C3.24111 3.95225 3.95224 3.24112 4.85897 3.09751L4.70254 2.10982Z" fill="#9D9D9D"/>
</svg>
