<svg width="2" height="10" viewBox="0 0 2 10" fill="none" xmlns="http://www.w3.org/2000/svg">
<path d="M2 5C2 5.55228 1.55228 6 1 6C0.447715 6 1.74846e-07 5.55228 1.74846e-07 5C1.74846e-07 4.44772 0.447715 4 1 4C1.55228 4 2 4.44772 2 5Z" fill="black"/>
<path d="M2 1C2 1.55228 1.55228 2 1 2C0.447715 2 3.49691e-07 1.55228 3.49691e-07 1C3.49691e-07 0.447715 0.447715 0 1 0C1.55228 0 2 0.447715 2 1Z" fill="black"/>
<path d="M2 9C2 9.55229 1.55228 10 1 10C0.447715 10 0 9.55229 0 9C0 8.44771 0.447715 8 1 8C1.55228 8 2 8.44771 2 9Z" fill="black"/>
</svg>
