<svg width="14" height="16" viewBox="0 0 14 16" fill="none" xmlns="http://www.w3.org/2000/svg">
<path d="M12.8307 5.25C13.2449 5.25 13.5807 4.91421 13.5807 4.5C13.5807 4.08579 13.2449 3.75 12.8307 3.75V5.25ZM2.51224 2.22312L1.97509 1.6997L1.97509 1.6997L2.51224 2.22312ZM4.24123 1.52342C4.53031 1.22676 4.52416 0.751922 4.22749 0.462846C3.93083 0.173771 3.456 0.179921 3.16692 0.476582L4.24123 1.52342ZM11.4877 13.7769L12.0248 14.3003L11.4877 13.7769ZM9.75869 14.4766C9.46961 14.7732 9.47576 15.2481 9.77242 15.5372C10.0691 15.8262 10.5439 15.8201 10.833 15.5234L9.75869 14.4766ZM12.9866 11.7193L13.7309 11.811V11.811L12.9866 11.7193ZM1 10.75C0.585788 10.75 0.250001 11.0858 0.250001 11.5C0.250001 11.9142 0.585788 12.25 1 12.25V10.75ZM12.992 11.669L13.7387 11.7397L12.992 11.669ZM1.21988 5.25H12.8307V3.75H1.21988V5.25ZM3.04939 2.74653L4.24123 1.52342L3.16692 0.476582L1.97509 1.6997L3.04939 2.74653ZM1.97509 1.6997C1.51203 2.1749 1.12 2.57561 0.841179 2.9351C0.552464 3.30735 0.328665 3.7042 0.268982 4.18903L1.75774 4.3723C1.77124 4.2627 1.82164 4.11848 2.02645 3.85441C2.24116 3.57759 2.56198 3.24674 3.04939 2.74653L1.97509 1.6997ZM10.9505 13.2535L9.75869 14.4766L10.833 15.5234L12.0248 14.3003L10.9505 13.2535ZM12.0248 14.3003C12.4879 13.8251 12.8799 13.4244 13.1587 13.0649C13.4475 12.6926 13.6713 12.2958 13.7309 11.811L12.2422 11.6277C12.2287 11.7373 12.1783 11.8815 11.9735 12.1456C11.7588 12.4224 11.4379 12.7533 10.9505 13.2535L12.0248 14.3003ZM12.2454 11.5984C12.2444 11.6082 12.2434 11.618 12.2422 11.6277L13.7309 11.811C13.7339 11.7872 13.7364 11.7635 13.7387 11.7397L12.2454 11.5984ZM12.8307 10.75H1V12.25H12.8307V10.75ZM13.7387 11.7397C13.7936 11.159 13.3173 10.75 12.8307 10.75L12.8307 12.25C12.5311 12.25 12.2081 11.9929 12.2454 11.5984L13.7387 11.7397ZM1.21988 3.75C1.48368 3.75 1.80564 3.9832 1.75774 4.3723L0.268982 4.18903C0.191411 4.81919 0.713206 5.25 1.21988 5.25V3.75Z" fill="#485056"/>
</svg>
