<svg width="22" height="22" viewBox="0 0 22 22" fill="none" xmlns="http://www.w3.org/2000/svg">
<path fill-rule="evenodd" clip-rule="evenodd" d="M11.2063 0.00386031C11.0688 -0.00128677 10.9312 -0.00128677 10.7937 0.00386031C9.8861 0.037838 9.06885 0.352787 8.17277 0.877065C7.29953 1.38798 6.29421 2.13338 5.01863 3.07915L4.94929 3.13056C3.67369 4.07632 2.66835 4.82172 1.92235 5.51137C1.15685 6.21905 0.610787 6.91492 0.298658 7.78529C0.251376 7.91714 0.208847 8.05071 0.171158 8.18574C-0.077639 9.07712 -0.0366692 9.96764 0.175027 10.9993C0.381327 12.0047 0.765335 13.2108 1.25257 14.7411L2.95014 20.0728C3.31602 21.2219 4.3654 22 5.54944 22C7.05888 22 8.28252 20.7513 8.28252 19.2109V16.4654C8.28252 15.8219 8.7937 15.3003 9.42426 15.3003H12.5757C13.2063 15.3003 13.7175 15.8219 13.7175 16.4654V19.2109C13.7175 20.7513 14.9411 22 16.4506 22C17.6346 22 18.684 21.2219 19.0499 20.0728L20.7474 14.741C21.2347 13.2108 21.6187 12.0047 21.825 10.9993C22.0367 9.96764 22.0776 9.07712 21.8288 8.18574C21.7912 8.05072 21.7486 7.91714 21.7013 7.78529C21.3892 6.91492 20.8431 6.21905 20.0777 5.51137C19.3316 4.82172 18.3263 4.07632 17.0507 3.13055L16.9814 3.07913C15.7058 2.13337 14.7005 1.38798 13.8272 0.877065C12.9312 0.352787 12.1139 0.037838 11.2063 0.00386031ZM10.8475 1.50096C10.9491 1.49715 11.0509 1.49715 11.1525 1.50096C11.7352 1.52277 12.3156 1.7195 13.0971 2.17672C13.8935 2.64268 14.8353 3.33973 16.1532 4.31685C17.4711 5.29397 18.4117 5.99267 19.0921 6.62164C19.7597 7.23881 20.1224 7.74132 20.3228 8.30015C20.3577 8.3976 20.3891 8.49633 20.417 8.59614C20.5767 9.16846 20.5728 9.79255 20.3881 10.6923C20.2 11.6093 19.8414 12.7387 19.338 14.3198L17.6537 19.6098C17.4844 20.1418 16.9986 20.5019 16.4506 20.5019C15.7519 20.5019 15.1855 19.9239 15.1855 19.2109V16.4654C15.1855 14.9946 14.0171 13.8022 12.5757 13.8022H9.42426C7.98294 13.8022 6.81451 14.9946 6.81451 16.4654V19.2109C6.81451 19.9239 6.24812 20.5019 5.54944 20.5019C5.00138 20.5019 4.51565 20.1418 4.34629 19.6098L2.66198 14.3198C2.15859 12.7387 1.80002 11.6093 1.61187 10.6923C1.42725 9.79255 1.42326 9.16846 1.583 8.59614C1.61086 8.49634 1.6423 8.39761 1.67724 8.30015C1.87765 7.74132 2.24034 7.23881 2.90793 6.62164C3.58829 5.99266 4.52895 5.29397 5.84682 4.31685C7.16469 3.33973 8.10651 2.64268 8.90292 2.17672C9.68439 1.7195 10.2648 1.52277 10.8475 1.50096Z" fill="#007DEF"/>
</svg>
