<svg width="16" height="18" viewBox="0 0 16 18" fill="none" xmlns="http://www.w3.org/2000/svg">
<path d="M2.60306 16.2361L2.97719 15.7354L2.60306 16.2361ZM1.74271 15.3511L2.2532 14.9906L1.74271 15.3511ZM14.2573 15.3511L13.7468 14.9906L14.2573 15.3511ZM13.3969 16.2361L13.7711 16.7367L13.3969 16.2361ZM13.3969 3.36393L13.7711 2.86328L13.3969 3.36393ZM14.2573 4.24886L13.7468 4.60945L14.2573 4.24886ZM2.60306 3.36393L2.97719 3.86458L2.60306 3.36393ZM1.74271 4.24886L2.2532 4.60945L1.74271 4.24886ZM13.6139 12.2492L13.5134 11.6324L13.6139 12.2492ZM10.3812 15.5743L9.76349 15.4791L10.3812 15.5743ZM5.66667 9.975C5.32149 9.975 5.04167 10.2548 5.04167 10.6C5.04167 10.9452 5.32149 11.225 5.66667 11.225V9.975ZM10.3333 11.225C10.6785 11.225 10.9583 10.9452 10.9583 10.6C10.9583 10.2548 10.6785 9.975 10.3333 9.975V11.225ZM9.70833 3.4C9.70833 3.74518 9.98816 4.025 10.3333 4.025C10.6785 4.025 10.9583 3.74518 10.9583 3.4H9.70833ZM10.9583 1C10.9583 0.654822 10.6785 0.375 10.3333 0.375C9.98816 0.375 9.70833 0.654822 9.70833 1H10.9583ZM5.04167 3.4C5.04167 3.74518 5.32149 4.025 5.66667 4.025C6.01184 4.025 6.29167 3.74518 6.29167 3.4H5.04167ZM6.29167 1C6.29167 0.654822 6.01184 0.375 5.66667 0.375C5.32149 0.375 5.04167 0.654822 5.04167 1H6.29167ZM14.9775 12.2L15.6022 12.2208L14.9775 12.2ZM1.0225 7.4L0.397846 7.37919L1.0225 7.4ZM14.9775 7.4L15.6022 7.37919L14.9775 7.4ZM8 16.375C6.52746 16.375 5.47468 16.3741 4.66042 16.2834C3.85893 16.194 3.36335 16.024 2.97719 15.7354L2.22892 16.7367C2.86502 17.2121 3.60968 17.424 4.52198 17.5257C5.42152 17.6259 6.55608 17.625 8 17.625V16.375ZM0.375 9.8C0.375 11.2864 0.374189 12.4499 0.471278 13.3717C0.569493 14.3041 0.773616 15.0625 1.23222 15.7117L2.2532 14.9906C1.9691 14.5883 1.80186 14.0711 1.7144 13.2407C1.62581 12.3997 1.625 11.3134 1.625 9.8H0.375ZM2.97719 15.7354C2.70003 15.5283 2.45558 15.2771 2.2532 14.9906L1.23222 15.7117C1.50958 16.1044 1.8458 16.4504 2.22892 16.7367L2.97719 15.7354ZM13.7468 14.9906C13.5444 15.2771 13.3 15.5283 13.0228 15.7354L13.7711 16.7367C14.1542 16.4504 14.4904 16.1044 14.7678 15.7117L13.7468 14.9906ZM13.0228 3.86458C13.3 4.07171 13.5444 4.32294 13.7468 4.60945L14.7678 3.88827C14.4904 3.49562 14.1542 3.14959 13.7711 2.86328L13.0228 3.86458ZM2.22892 2.86328C1.8458 3.1496 1.50958 3.49562 1.23222 3.88827L2.2532 4.60945C2.45558 4.32294 2.70003 4.07171 2.97719 3.86458L2.22892 2.86328ZM13.5134 11.6324C11.5723 11.9486 10.0667 13.51 9.76349 15.4791L10.9989 15.6694C11.2228 14.2154 12.3274 13.0921 13.7144 12.8661L13.5134 11.6324ZM5.66667 11.225H10.3333V9.975H5.66667V11.225ZM14.9775 11.575C14.2934 11.575 13.8748 11.5735 13.5134 11.6324L13.7144 12.8661C13.9512 12.8275 14.2464 12.825 14.9775 12.825L14.9775 11.575ZM14.375 9.8C14.375 10.7385 14.3749 11.5163 14.3528 12.1792L15.6022 12.2208C15.6251 11.5327 15.625 10.7318 15.625 9.8H14.375ZM14.3528 12.1792C14.3034 13.6641 14.1419 14.4312 13.7468 14.9906L14.7678 15.7117C15.395 14.8237 15.5523 13.7186 15.6022 12.2208L14.3528 12.1792ZM10.9583 16.9769C10.9583 16.2268 10.9606 15.9181 10.9989 15.6694L9.76349 15.4791C9.70703 15.8458 9.70834 16.2713 9.70833 16.9769L10.9583 16.9769ZM8 17.625C8.90561 17.625 9.68528 17.6251 10.3553 17.6015L10.3113 16.3522C9.66796 16.3749 8.91272 16.375 8 16.375V17.625ZM10.3553 17.6015C11.8144 17.5501 12.9002 17.3876 13.7711 16.7367L13.0228 15.7354C12.4866 16.1362 11.7521 16.3015 10.3113 16.3522L10.3553 17.6015ZM1.625 9.8C1.625 8.8615 1.62507 8.08366 1.64715 7.42081L0.397846 7.37919C0.374926 8.06729 0.375 8.86822 0.375 9.8H1.625ZM1.64715 7.42081C1.69662 5.93586 1.85807 5.16883 2.2532 4.60945L1.23222 3.88827C0.604985 4.77625 0.447736 5.88144 0.397846 7.37919L1.64715 7.42081ZM1.0225 8.025H14.9775V6.775H1.0225V8.025ZM15.625 9.8C15.625 8.86822 15.6251 8.06729 15.6022 7.37919L14.3528 7.42081C14.3749 8.08366 14.375 8.8615 14.375 9.8H15.625ZM15.6022 7.37919C15.5523 5.88144 15.395 4.77625 14.7678 3.88827L13.7468 4.60945C14.1419 5.16883 14.3034 5.93586 14.3528 7.42081L15.6022 7.37919ZM10.9583 3.4V2.62314H9.70833V3.4H10.9583ZM10.9583 2.62314V1H9.70833V2.62314H10.9583ZM8 3.225C8.91272 3.225 9.66796 3.22508 10.3113 3.24776L10.3553 1.99853C9.68528 1.97492 8.90561 1.975 8 1.975V3.225ZM10.3113 3.24776C11.7521 3.29853 12.4866 3.46385 13.0228 3.86458L13.7711 2.86328C12.9002 2.21244 11.8144 2.04995 10.3553 1.99853L10.3113 3.24776ZM6.29167 3.4V2.62314H5.04167V3.4H6.29167ZM6.29167 2.62314V1H5.04167V2.62314H6.29167ZM8 1.975C7.09439 1.975 6.31472 1.97492 5.64466 1.99853L5.68868 3.24776C6.33204 3.22508 7.08728 3.225 8 3.225V1.975ZM5.64466 1.99853C4.1856 2.04995 3.09985 2.21244 2.22892 2.86328L2.97719 3.86458C3.51343 3.46385 4.24789 3.29853 5.68868 3.24776L5.64466 1.99853Z" fill="#007DEF"/>
</svg>
