<svg width="14" height="14" viewBox="0 0 14 14" fill="none" xmlns="http://www.w3.org/2000/svg">
<path d="M1 3.24871C1 2.00678 2.03645 1 3.31497 1H10.7228C11.9805 1 13 1.99035 13 3.212C13 3.86266 12.7051 4.48032 12.1937 4.90061L9.84686 6.8296C9.09836 7.44482 8.66667 8.34895 8.66667 9.30138V10.4545C8.66667 11.0243 8.38601 11.5596 7.91165 11.8947L6.61747 12.809C5.94431 13.2846 5 12.8175 5 12.0089V9.22401C5 8.3164 4.60785 7.45045 3.91908 6.83716L1.75069 4.90636C1.27235 4.48043 1 3.87904 1 3.24871Z" stroke="#9D9D9D" stroke-width="1.25"/>
</svg>
