<svg width="20" height="20" viewBox="0 0 20 20" fill="none" xmlns="http://www.w3.org/2000/svg">
<path fill-rule="evenodd" clip-rule="evenodd" d="M0 10C0 5.83363 0 3.75045 1.06102 2.29008C1.40368 1.81844 1.81844 1.40368 2.29008 1.06102C3.75045 0 5.83363 0 10 0C10.9322 0 11.76 0 12.5 0.0118828L12.5 0.0898001C12.4999 1.03649 12.4999 1.61314 12.5787 2.11055C13.0116 4.84431 15.1557 6.98836 17.8894 7.42134C18.3869 7.50013 18.9635 7.50008 19.9102 7.50001L19.9881 7.5C20 8.23996 20 9.06784 20 10C20 14.1664 20 16.2496 18.939 17.7099C18.5963 18.1816 18.1816 18.5963 17.7099 18.939C16.2496 20 14.1664 20 10 20C5.83363 20 3.75045 20 2.29008 18.939C1.81844 18.5963 1.40368 18.1816 1.06102 17.7099C0 16.2496 0 14.1664 0 10ZM9.72222 7.77778C9.72222 7.31754 9.34913 6.94444 8.88889 6.94444C8.42865 6.94444 8.05556 7.31754 8.05556 7.77778L8.05556 10.2778H5.55556C5.09532 10.2778 4.72222 10.6509 4.72222 11.1111C4.72222 11.5713 5.09532 11.9444 5.55556 11.9444H8.05556V14.4444C8.05556 14.9047 8.42865 15.2778 8.88889 15.2778C9.34913 15.2778 9.72222 14.9047 9.72222 14.4444V11.9444H12.2222C12.6825 11.9444 13.0556 11.5713 13.0556 11.1111C13.0556 10.6509 12.6825 10.2778 12.2222 10.2778H9.72222V7.77778Z" fill="white"/>
<path d="M14.2248 1.84983C14.1705 1.50717 14.1668 1.08408 14.1667 0.0725961C15.7663 0.177494 16.8469 0.433963 17.7099 1.06102C18.1816 1.40368 18.5963 1.81844 18.939 2.29008C19.566 3.15315 19.8225 4.23375 19.9274 5.83333C18.9159 5.83319 18.4928 5.82947 18.1502 5.7752C16.1296 5.45516 14.5448 3.87043 14.2248 1.84983Z" fill="white"/>
</svg>
